<svg width="145" height="61" viewBox="0 0 145 61" fill="none" xmlns="http://www.w3.org/2000/svg">
<path d="M8.875 24H0.906255V1.375H8.96875C15.7813 1.375 19.9531 5.60938 19.9375 12.6562C19.9531 19.7344 15.7813 24 8.875 24ZM5.59375 19.9688H8.6875C13 19.9688 15.25 17.7344 15.25 12.6562C15.25 7.625 13 5.40625 8.71875 5.40625H5.59375V19.9688Z" fill="white"/>
<path d="M22.4375 19.25C22.4531 15.4688 25.4844 14.2344 28.75 14.0312C29.9688 13.9531 32.25 13.8438 32.9688 13.8125V12.4375C32.9531 11.0156 31.9844 10.2031 30.25 10.1875C28.6719 10.2031 27.6875 10.9062 27.4375 12.0625H23.0313C23.3125 9.125 25.875 6.8125 30.375 6.8125C34.0781 6.8125 37.5781 8.46875 37.5625 12.5625V24H33.1875V21.6562H33.0625C32.2344 23.2188 30.6094 24.3281 28.0938 24.3125C24.8438 24.3281 22.4531 22.6094 22.4375 19.25ZM26.875 19.125C26.875 20.4219 27.9219 21.1094 29.4063 21.125C31.5156 21.1094 32.9844 19.7344 32.9688 17.9375V16.7031C32.2656 16.7344 30.2813 16.8438 29.5 16.9062C27.8906 17.0469 26.875 17.8125 26.875 19.125Z" fill="white"/>
<path d="M56.2188 7.03125L50.25 24H45.0625L39.125 7.03125H44L47.5625 19.2188H47.75L51.3125 7.03125H56.2188Z" fill="white"/>
<path d="M58.4688 24V7.03125H63.0938V24H58.4688ZM58.25 2.46875C58.25 1.15625 59.3906 0.109375 60.7813 0.09375C62.1563 0.109375 63.2969 1.15625 63.2813 2.46875C63.2969 3.75 62.1563 4.8125 60.7813 4.8125C59.3906 4.8125 58.25 3.75 58.25 2.46875Z" fill="white"/>
<path d="M72.9375 24.2812C69.0625 24.2812 66.0313 21.2031 66.0313 15.5312C66.0313 9.71875 69.1875 6.8125 72.9375 6.8125C75.7813 6.8125 77.1406 8.5 77.75 9.875H77.9063V1.375H82.5313V24H77.9688V21.2812H77.75C77.1094 22.6875 75.7031 24.2812 72.9375 24.2812ZM70.7813 15.5C70.7656 18.5 72.0313 20.5781 74.375 20.5938C76.6875 20.5781 78 18.5625 78 15.5C78 12.4531 76.7031 10.5 74.375 10.5C72.0156 10.5 70.7656 12.5469 70.7813 15.5Z" fill="white"/>
<path d="M93.7188 24V1.375H98.4063V20.125H108.156V24H93.7188Z" fill="white"/>
<path d="M118.781 24.3438C113.578 24.3281 110.391 20.9688 110.406 15.5938C110.391 10.3594 113.625 6.8125 118.594 6.8125C123.047 6.8125 126.563 9.625 126.563 15.4062V16.7188H114.969C114.969 19.2812 116.484 20.8594 118.875 20.875C120.453 20.8594 121.578 20.1719 122.031 19.1562H126.438C125.781 22.2969 122.969 24.3281 118.781 24.3438ZM114.969 13.8125H122.188C122.172 11.75 120.75 10.2656 118.688 10.2812C116.563 10.2656 115.063 11.8594 114.969 13.8125Z" fill="white"/>
<path d="M137.156 24.3438C131.953 24.3281 128.766 20.9688 128.781 15.5938C128.766 10.3594 132 6.8125 136.969 6.8125C141.422 6.8125 144.938 9.625 144.938 15.4062V16.7188H133.344C133.344 19.2812 134.859 20.8594 137.25 20.875C138.828 20.8594 139.953 20.1719 140.406 19.1562H144.812C144.156 22.2969 141.344 24.3281 137.156 24.3438ZM133.344 13.8125H140.562C140.547 11.75 139.125 10.2656 137.062 10.2812C134.938 10.2656 133.438 11.8594 133.344 13.8125Z" fill="white"/>
<path d="M20.5742 35.6328V60.5703H17.0469V35.6328H20.5742ZM0.476567 46.2422C0.462895 40.8145 3.23829 37.3828 7.06641 37.3828C10.8125 37.3828 13.6016 40.8145 13.6016 46.2422C13.6016 51.7109 10.8125 55.1289 7.06641 55.1289C3.23829 55.1289 0.462895 51.7109 0.476567 46.2422ZM3.83985 46.2422C3.82618 49.9473 5.125 51.9707 7.06641 51.957C8.95313 51.9707 10.2246 49.9473 10.2383 46.2422C10.2246 42.5508 8.95313 40.5273 7.06641 40.5273C5.125 40.5273 3.82618 42.5508 3.83985 46.2422Z" fill="white"/>
<path d="M43.5703 35.6328V44.875H47.2344V47.7188H43.5703V60.5703H40.0703V35.6328H43.5703ZM24.9219 54.5273V37.9297H36.5977V40.7461H28.3945V51.6562C32.0039 51.6289 34.9844 51.4375 38.293 50.8633L38.6758 53.7891C34.8066 54.4453 31.416 54.541 27.0273 54.5273H24.9219Z" fill="white"/>
<path d="M69.0274 35.6328V53.4883H65.5547V35.6328H69.0274ZM48.1914 46.8711C52.7031 46.8711 58.9102 46.8164 64.1602 46.0781L64.3516 48.5391C62.1094 48.9492 59.7852 49.209 57.5156 49.373V53.2148H54.0703V49.5645C52.1289 49.6465 50.2969 49.6738 48.6563 49.6875L48.1914 46.8711ZM49.9141 40.9922C49.9277 38.2305 52.5117 36.3984 56.2852 36.3984C60.0449 36.3984 62.6699 38.2305 62.6836 40.9922C62.6699 43.7129 60.0449 45.5449 56.2852 45.5312C52.5117 45.5449 49.9277 43.7129 49.9141 40.9922ZM51.3086 57.7539C56.6816 57.1523 59.2383 54.7734 59.2656 52.4219V51.4375H62.793V52.4219C62.7793 54.7734 65.3496 57.1523 70.75 57.7539L69.5195 60.4062C65.4453 59.873 62.5469 58.3418 61.043 56.1953C59.5254 58.3555 56.5996 59.9141 52.4844 60.4336L51.3086 57.7539ZM53.3047 40.9922C53.3047 42.25 54.5352 42.9473 56.2852 42.9609C58.0215 42.9473 59.252 42.25 59.2656 40.9922C59.252 39.6797 58.0215 38.9688 56.2852 38.9688C54.5352 38.9688 53.3047 39.6797 53.3047 40.9922Z" fill="white"/>
</svg>
