<svg width="133" height="43" viewBox="0 0 133 43" fill="none" xmlns="http://www.w3.org/2000/svg">
<path d="M2.1 22V2.176H9.576C11.648 2.176 13.412 2.568 14.868 3.352C16.3427 4.136 17.4627 5.26533 18.228 6.74C19.012 8.21467 19.404 10.016 19.404 12.144C19.404 14.2347 19.0213 16.0173 18.256 17.492C17.5093 18.948 16.408 20.068 14.952 20.852C13.496 21.6173 11.7133 22 9.604 22H2.1ZM6.104 18.304H9.576C10.9573 18.304 12.068 18.0427 12.908 17.52C13.748 16.9973 14.364 16.2693 14.756 15.336C15.148 14.4027 15.344 13.3293 15.344 12.116C15.344 10.94 15.148 9.88533 14.756 8.952C14.3827 8 13.7667 7.25333 12.908 6.712C12.068 6.17067 10.9293 5.9 9.492 5.9H6.104V18.304ZM26.6691 22.196C25.9971 22.196 25.3438 22.112 24.7091 21.944C24.0931 21.7573 23.5425 21.4773 23.0571 21.104C22.5718 20.7307 22.1891 20.264 21.9091 19.704C21.6291 19.144 21.4891 18.4907 21.4891 17.744C21.4891 16.736 21.6945 15.9333 22.1051 15.336C22.5158 14.72 23.0665 14.2533 23.7571 13.936C24.4478 13.6187 25.2411 13.404 26.1371 13.292C27.0518 13.18 27.9945 13.124 28.9651 13.124H31.0931C31.0931 12.5827 30.9905 12.1067 30.7851 11.696C30.5985 11.2667 30.3091 10.94 29.9171 10.716C29.5251 10.4733 29.0211 10.352 28.4051 10.352C28.0131 10.352 27.6305 10.408 27.2571 10.52C26.9025 10.6133 26.6038 10.7533 26.3611 10.94C26.1185 11.1267 25.9598 11.3693 25.8851 11.668H21.9091C22.0211 10.8467 22.2825 10.1467 22.6931 9.568C23.1038 8.97067 23.6171 8.48533 24.2331 8.112C24.8491 7.73867 25.5211 7.468 26.2491 7.3C26.9958 7.11333 27.7611 7.02 28.5451 7.02C30.6918 7.02 32.2785 7.636 33.3051 8.868C34.3318 10.0813 34.8451 11.808 34.8451 14.048V22H31.3171L31.2611 20.096C30.7945 20.7493 30.2625 21.2253 29.6651 21.524C29.0865 21.8227 28.5265 22.0093 27.9851 22.084C27.4438 22.1587 27.0051 22.196 26.6691 22.196ZM27.5651 19.088C28.2185 19.088 28.8158 18.9573 29.3571 18.696C29.8985 18.4347 30.3278 18.08 30.6451 17.632C30.9625 17.184 31.1211 16.68 31.1211 16.12V15.756H28.4331C28.0411 15.756 27.6585 15.7747 27.2851 15.812C26.9305 15.8493 26.6038 15.924 26.3051 16.036C26.0251 16.1293 25.8011 16.288 25.6331 16.512C25.4651 16.736 25.3811 17.0347 25.3811 17.408C25.3811 17.7813 25.4745 18.0987 25.6611 18.36C25.8665 18.6027 26.1371 18.7893 26.4731 18.92C26.8091 19.032 27.1731 19.088 27.5651 19.088ZM41.5472 22L36.3672 7.244H40.6512L44.1792 18.808L47.6792 7.244H51.9912L46.8112 22H41.5472ZM53.5205 22V7.244H57.4405V22H53.5205ZM55.4805 5.76C54.7525 5.76 54.1645 5.54533 53.7165 5.116C53.2685 4.668 53.0445 4.09867 53.0445 3.408C53.0445 2.68 53.2778 2.092 53.7445 1.644C54.2111 1.196 54.7991 0.971999 55.5085 0.971999C56.1618 0.971999 56.7218 1.196 57.1885 1.644C57.6738 2.07333 57.9165 2.652 57.9165 3.38C57.9165 4.08933 57.6831 4.668 57.2165 5.116C56.7685 5.54533 56.1898 5.76 55.4805 5.76ZM66.6238 22.196C65.1305 22.196 63.8891 21.86 62.8998 21.188C61.9291 20.4973 61.2011 19.5827 60.7158 18.444C60.2305 17.2867 59.9878 16.008 59.9878 14.608C59.9878 13.1333 60.2491 11.8267 60.7718 10.688C61.2945 9.53067 62.0691 8.62533 63.0958 7.972C64.1225 7.31867 65.4011 6.992 66.9318 6.992C67.4545 6.992 67.9678 7.05733 68.4718 7.188C68.9945 7.3 69.4705 7.47733 69.8998 7.72C70.3478 7.944 70.7305 8.24267 71.0478 8.616V2.176H74.9678V22H71.1598L71.1038 20.348C70.7678 20.7773 70.3571 21.132 69.8718 21.412C69.4051 21.6733 68.9011 21.8693 68.3598 22C67.8185 22.1307 67.2398 22.196 66.6238 22.196ZM67.4078 18.668C68.2478 18.668 68.9291 18.472 69.4518 18.08C69.9931 17.688 70.3945 17.184 70.6558 16.568C70.9171 15.952 71.0478 15.2893 71.0478 14.58C71.0478 13.852 70.9171 13.1893 70.6558 12.592C70.4131 11.976 70.0211 11.4907 69.4798 11.136C68.9571 10.7627 68.2665 10.576 67.4078 10.576C66.5491 10.576 65.8585 10.772 65.3358 11.164C64.8131 11.556 64.4398 12.0693 64.2158 12.704C64.0105 13.32 63.9078 13.9827 63.9078 14.692C63.9078 15.2147 63.9638 15.7187 64.0758 16.204C64.2065 16.6707 64.4118 17.0907 64.6918 17.464C64.9718 17.8373 65.3358 18.136 65.7838 18.36C66.2318 18.5653 66.7731 18.668 67.4078 18.668ZM86.5102 22V2.176H90.5142V18.304H100.566V22H86.5102ZM109.597 22.196C108.047 22.196 106.731 21.888 105.649 21.272C104.566 20.656 103.735 19.788 103.157 18.668C102.578 17.5293 102.289 16.204 102.289 14.692C102.289 13.1613 102.587 11.8267 103.185 10.688C103.782 9.53067 104.622 8.62533 105.705 7.972C106.806 7.31867 108.103 6.992 109.597 6.992C110.717 6.992 111.697 7.17867 112.537 7.552C113.395 7.92533 114.114 8.448 114.693 9.12C115.29 9.792 115.729 10.576 116.009 11.472C116.307 12.3493 116.447 13.3013 116.429 14.328C116.429 14.5893 116.419 14.8413 116.401 15.084C116.382 15.3267 116.345 15.5693 116.289 15.812H106.181C106.237 16.372 106.395 16.8853 106.657 17.352C106.918 17.8187 107.282 18.192 107.749 18.472C108.234 18.7333 108.831 18.864 109.541 18.864C110.007 18.864 110.437 18.8173 110.829 18.724C111.221 18.612 111.557 18.444 111.837 18.22C112.117 17.996 112.313 17.7347 112.425 17.436H116.289C116.046 18.5373 115.589 19.4427 114.917 20.152C114.263 20.8613 113.47 21.384 112.537 21.72C111.603 22.0373 110.623 22.196 109.597 22.196ZM106.265 13.068H112.677C112.658 12.564 112.527 12.0973 112.285 11.668C112.061 11.22 111.715 10.8653 111.249 10.604C110.801 10.324 110.222 10.184 109.513 10.184C108.803 10.184 108.206 10.324 107.721 10.604C107.254 10.884 106.899 11.248 106.657 11.696C106.433 12.1253 106.302 12.5827 106.265 13.068ZM125.702 22.196C124.153 22.196 122.837 21.888 121.754 21.272C120.671 20.656 119.841 19.788 119.262 18.668C118.683 17.5293 118.394 16.204 118.394 14.692C118.394 13.1613 118.693 11.8267 119.29 10.688C119.887 9.53067 120.727 8.62533 121.81 7.972C122.911 7.31867 124.209 6.992 125.702 6.992C126.822 6.992 127.802 7.17867 128.642 7.552C129.501 7.92533 130.219 8.448 130.798 9.12C131.395 9.792 131.834 10.576 132.114 11.472C132.413 12.3493 132.553 13.3013 132.534 14.328C132.534 14.5893 132.525 14.8413 132.506 15.084C132.487 15.3267 132.45 15.5693 132.394 15.812H122.286C122.342 16.372 122.501 16.8853 122.762 17.352C123.023 17.8187 123.387 18.192 123.854 18.472C124.339 18.7333 124.937 18.864 125.646 18.864C126.113 18.864 126.542 18.8173 126.934 18.724C127.326 18.612 127.662 18.444 127.942 18.22C128.222 17.996 128.418 17.7347 128.53 17.436H132.394C132.151 18.5373 131.694 19.4427 131.022 20.152C130.369 20.8613 129.575 21.384 128.642 21.72C127.709 22.0373 126.729 22.196 125.702 22.196ZM122.37 13.068H128.782C128.763 12.564 128.633 12.0973 128.39 11.668C128.166 11.22 127.821 10.8653 127.354 10.604C126.906 10.324 126.327 10.184 125.618 10.184C124.909 10.184 124.311 10.324 123.826 10.604C123.359 10.884 123.005 11.248 122.762 11.696C122.538 12.1253 122.407 12.5827 122.37 13.068Z" fill="url(#paint0_linear_1_2)"/>
<path d="M12.3281 28.2188V42.4688H10.3125V28.2188H12.3281ZM0.84375 34.2812C0.835938 31.1797 2.42188 29.2188 4.60938 29.2188C6.75 29.2188 8.34375 31.1797 8.34375 34.2812C8.34375 37.4062 6.75 39.3594 4.60938 39.3594C2.42188 39.3594 0.835938 37.4062 0.84375 34.2812ZM2.76562 34.2812C2.75781 36.3984 3.5 37.5547 4.60938 37.5469C5.6875 37.5547 6.41406 36.3984 6.42188 34.2812C6.41406 32.1719 5.6875 31.0156 4.60938 31.0156C3.5 31.0156 2.75781 32.1719 2.76562 34.2812ZM25.4688 28.2188V33.5H27.5625V35.125H25.4688V42.4688H23.4688V28.2188H25.4688ZM14.8125 39.0156V29.5312H21.4844V31.1406H16.7969V37.375C18.8594 37.3594 20.5625 37.25 22.4531 36.9219L22.6719 38.5938C20.4609 38.9688 18.5234 39.0234 16.0156 39.0156H14.8125ZM40.0156 28.2188V38.4219H38.0312V28.2188H40.0156ZM28.1094 34.6406C30.6875 34.6406 34.2344 34.6094 37.2344 34.1875L37.3438 35.5938C36.0625 35.8281 34.7344 35.9766 33.4375 36.0703V38.2656H31.4688V36.1797C30.3594 36.2266 29.3125 36.2422 28.375 36.25L28.1094 34.6406ZM29.0938 31.2812C29.1016 29.7031 30.5781 28.6562 32.7344 28.6562C34.8828 28.6562 36.3828 29.7031 36.3906 31.2812C36.3828 32.8359 34.8828 33.8828 32.7344 33.875C30.5781 33.8828 29.1016 32.8359 29.0938 31.2812ZM29.8906 40.8594C32.9609 40.5156 34.4219 39.1562 34.4375 37.8125V37.25H36.4531V37.8125C36.4453 39.1562 37.9141 40.5156 41 40.8594L40.2969 42.375C37.9688 42.0703 36.3125 41.1953 35.4531 39.9688C34.5859 41.2031 32.9141 42.0938 30.5625 42.3906L29.8906 40.8594ZM31.0312 31.2812C31.0312 32 31.7344 32.3984 32.7344 32.4062C33.7266 32.3984 34.4297 32 34.4375 31.2812C34.4297 30.5312 33.7266 30.125 32.7344 30.125C31.7344 30.125 31.0312 30.5312 31.0312 31.2812Z" fill="white" fill-opacity="0.6"/>
<defs>
<linearGradient id="paint0_linear_1_2" x1="0" y1="20" x2="134" y2="20" gradientUnits="userSpaceOnUse">
<stop stop-color="#3B82F6"/>
<stop offset="1" stop-color="#EC4899"/>
</linearGradient>
</defs>
</svg>
