<svg width="145" height="50" viewBox="0 0 145 50" fill="none" xmlns="http://www.w3.org/2000/svg">
<path d="M8.875 24H0.90625V1.375H8.96875C15.7812 1.375 19.9531 5.60938 19.9375 12.6562C19.9531 19.7344 15.7812 24 8.875 24ZM5.59375 19.9688H8.6875C13 19.9688 15.25 17.7344 15.25 12.6562C15.25 7.625 13 5.40625 8.71875 5.40625H5.59375V19.9688ZM22.4375 19.25C22.4531 15.4688 25.4844 14.2344 28.75 14.0312C29.9688 13.9531 32.25 13.8438 32.9688 13.8125V12.4375C32.9531 11.0156 31.9844 10.2031 30.25 10.1875C28.6719 10.2031 27.6875 10.9062 27.4375 12.0625H23.0312C23.3125 9.125 25.875 6.8125 30.375 6.8125C34.0781 6.8125 37.5781 8.46875 37.5625 12.5625V24H33.1875V21.6562H33.0625C32.2344 23.2188 30.6094 24.3281 28.0938 24.3125C24.8438 24.3281 22.4531 22.6094 22.4375 19.25ZM26.875 19.125C26.875 20.4219 27.9219 21.1094 29.4062 21.125C31.5156 21.1094 32.9844 19.7344 32.9688 17.9375V16.7031C32.2656 16.7344 30.2812 16.8438 29.5 16.9062C27.8906 17.0469 26.875 17.8125 26.875 19.125ZM56.2188 7.03125L50.25 24H45.0625L39.125 7.03125H44L47.5625 19.2188H47.75L51.3125 7.03125H56.2188ZM58.4688 24V7.03125H63.0938V24H58.4688ZM58.25 2.46875C58.25 1.15625 59.3906 0.109375 60.7812 0.09375C62.1562 0.109375 63.2969 1.15625 63.2812 2.46875C63.2969 3.75 62.1562 4.8125 60.7812 4.8125C59.3906 4.8125 58.25 3.75 58.25 2.46875ZM72.9375 24.2812C69.0625 24.2812 66.0312 21.2031 66.0312 15.5312C66.0312 9.71875 69.1875 6.8125 72.9375 6.8125C75.7812 6.8125 77.1406 8.5 77.75 9.875H77.9062V1.375H82.5312V24H77.9688V21.2812H77.75C77.1094 22.6875 75.7031 24.2812 72.9375 24.2812ZM70.7812 15.5C70.7656 18.5 72.0312 20.5781 74.375 20.5938C76.6875 20.5781 78 18.5625 78 15.5C78 12.4531 76.7031 10.5 74.375 10.5C72.0156 10.5 70.7656 12.5469 70.7812 15.5ZM93.7188 24V1.375H98.4062V20.125H108.156V24H93.7188ZM118.781 24.3438C113.578 24.3281 110.391 20.9688 110.406 15.5938C110.391 10.3594 113.625 6.8125 118.594 6.8125C123.047 6.8125 126.562 9.625 126.562 15.4062V16.7188H114.969C114.969 19.2812 116.484 20.8594 118.875 20.875C120.453 20.8594 121.578 20.1719 122.031 19.1562H126.438C125.781 22.2969 122.969 24.3281 118.781 24.3438ZM114.969 13.8125H122.188C122.172 11.75 120.75 10.2656 118.688 10.2812C116.562 10.2656 115.062 11.8594 114.969 13.8125ZM137.156 24.3438C131.953 24.3281 128.766 20.9688 128.781 15.5938C128.766 10.3594 132 6.8125 136.969 6.8125C141.422 6.8125 144.938 9.625 144.938 15.4062V16.7188H133.344C133.344 19.2812 134.859 20.8594 137.25 20.875C138.828 20.8594 139.953 20.1719 140.406 19.1562H144.812C144.156 22.2969 141.344 24.3281 137.156 24.3438ZM133.344 13.8125H140.562C140.547 11.75 139.125 10.2656 137.062 10.2812C134.938 10.2656 133.438 11.8594 133.344 13.8125ZM14.4102 32.0234V49.8359H11.8906V32.0234H14.4102ZM0.0546875 39.6016C0.0449219 35.7246 2.02734 33.2734 4.76172 33.2734C7.4375 33.2734 9.42969 35.7246 9.42969 39.6016C9.42969 43.5078 7.4375 45.9492 4.76172 45.9492C2.02734 45.9492 0.0449219 43.5078 0.0546875 39.6016ZM2.45703 39.6016C2.44727 42.248 3.375 43.6934 4.76172 43.6836C6.10938 43.6934 7.01758 42.248 7.02734 39.6016C7.01758 36.9648 6.10938 35.5195 4.76172 35.5195C3.375 35.5195 2.44727 36.9648 2.45703 39.6016ZM30.8359 32.0234V38.625H33.4531V40.6562H30.8359V49.8359H28.3359V32.0234H30.8359ZM17.5156 45.5195V33.6641H25.8555V35.6758H19.9961V43.4688C22.5742 43.4492 24.7031 43.3125 27.0664 42.9023L27.3398 44.9922C24.5762 45.4609 22.1543 45.5293 19.0195 45.5195H17.5156ZM49.0195 32.0234V44.7773H46.5391V32.0234H49.0195ZM34.1367 40.0508C37.3594 40.0508 41.793 40.0117 45.543 39.4844L45.6797 41.2422C44.0781 41.5352 42.418 41.7207 40.7969 41.8379V44.582H38.3359V41.9746C36.9492 42.0332 35.6406 42.0527 34.4688 42.0625L34.1367 40.0508ZM35.3672 35.8516C35.377 33.8789 37.2227 32.5703 39.918 32.5703C42.6035 32.5703 44.4785 33.8789 44.4883 35.8516C44.4785 37.7949 42.6035 39.1035 39.918 39.0938C37.2227 39.1035 35.377 37.7949 35.3672 35.8516ZM36.3633 47.8242C40.2012 47.3945 42.0273 45.6953 42.0469 44.0156V43.3125H44.5664V44.0156C44.5566 45.6953 46.3926 47.3945 50.25 47.8242L49.3711 49.7188C46.4609 49.3379 44.3906 48.2441 43.3164 46.7109C42.2324 48.2539 40.1426 49.3672 37.2031 49.7383L36.3633 47.8242ZM37.7891 35.8516C37.7891 36.75 38.668 37.248 39.918 37.2578C41.1582 37.248 42.0371 36.75 42.0469 35.8516C42.0371 34.9141 41.1582 34.4062 39.918 34.4062C38.668 34.4062 37.7891 34.9141 37.7891 35.8516Z" fill="black"/>
</svg>
