<svg width="132" height="48" viewBox="0 0 132 48" fill="none" xmlns="http://www.w3.org/2000/svg">
<path d="M1.1 22V2.176H8.576C10.648 2.176 12.412 2.568 13.868 3.352C15.3427 4.136 16.4627 5.26533 17.228 6.74C18.012 8.21467 18.404 10.016 18.404 12.144C18.404 14.2347 18.0213 16.0173 17.256 17.492C16.5093 18.948 15.408 20.068 13.952 20.852C12.496 21.6173 10.7133 22 8.604 22H1.1ZM5.104 18.304H8.576C9.95733 18.304 11.068 18.0427 11.908 17.52C12.748 16.9973 13.364 16.2693 13.756 15.336C14.148 14.4027 14.344 13.3293 14.344 12.116C14.344 10.94 14.148 9.88533 13.756 8.952C13.3827 8 12.7667 7.25333 11.908 6.712C11.068 6.17067 9.92933 5.9 8.492 5.9H5.104V18.304ZM25.6691 22.196C24.9971 22.196 24.3438 22.112 23.7091 21.944C23.0931 21.7573 22.5425 21.4773 22.0571 21.104C21.5718 20.7307 21.1891 20.264 20.9091 19.704C20.6291 19.144 20.4891 18.4907 20.4891 17.744C20.4891 16.736 20.6945 15.9333 21.1051 15.336C21.5158 14.72 22.0665 14.2533 22.7571 13.936C23.4478 13.6187 24.2411 13.404 25.1371 13.292C26.0518 13.18 26.9945 13.124 27.9651 13.124H30.0931C30.0931 12.5827 29.9905 12.1067 29.7851 11.696C29.5985 11.2667 29.3091 10.94 28.9171 10.716C28.5251 10.4733 28.0211 10.352 27.4051 10.352C27.0131 10.352 26.6305 10.408 26.2571 10.52C25.9025 10.6133 25.6038 10.7533 25.3611 10.94C25.1185 11.1267 24.9598 11.3693 24.8851 11.668H20.9091C21.0211 10.8467 21.2825 10.1467 21.6931 9.568C22.1038 8.97067 22.6171 8.48533 23.2331 8.112C23.8491 7.73867 24.5211 7.468 25.2491 7.3C25.9958 7.11333 26.7611 7.02 27.5451 7.02C29.6918 7.02 31.2785 7.636 32.3051 8.868C33.3318 10.0813 33.8451 11.808 33.8451 14.048V22H30.3171L30.2611 20.096C29.7945 20.7493 29.2625 21.2253 28.6651 21.524C28.0865 21.8227 27.5265 22.0093 26.9851 22.084C26.4438 22.1587 26.0051 22.196 25.6691 22.196ZM26.5651 19.088C27.2185 19.088 27.8158 18.9573 28.3571 18.696C28.8985 18.4347 29.3278 18.08 29.6451 17.632C29.9625 17.184 30.1211 16.68 30.1211 16.12V15.756H27.4331C27.0411 15.756 26.6585 15.7747 26.2851 15.812C25.9305 15.8493 25.6038 15.924 25.3051 16.036C25.0251 16.1293 24.8011 16.288 24.6331 16.512C24.4651 16.736 24.3811 17.0347 24.3811 17.408C24.3811 17.7813 24.4745 18.0987 24.6611 18.36C24.8665 18.6027 25.1371 18.7893 25.4731 18.92C25.8091 19.032 26.1731 19.088 26.5651 19.088ZM40.5472 22L35.3672 7.244H39.6512L43.1792 18.808L46.6792 7.244H50.9912L45.8112 22H40.5472ZM52.5205 22V7.244H56.4405V22H52.5205ZM54.4805 5.76C53.7525 5.76 53.1645 5.54533 52.7165 5.116C52.2685 4.668 52.0445 4.09867 52.0445 3.408C52.0445 2.68 52.2778 2.092 52.7445 1.644C53.2111 1.196 53.7991 0.971999 54.5085 0.971999C55.1618 0.971999 55.7218 1.196 56.1885 1.644C56.6738 2.07333 56.9165 2.652 56.9165 3.38C56.9165 4.08933 56.6831 4.668 56.2165 5.116C55.7685 5.54533 55.1898 5.76 54.4805 5.76ZM65.6238 22.196C64.1305 22.196 62.8891 21.86 61.8998 21.188C60.9291 20.4973 60.2011 19.5827 59.7158 18.444C59.2305 17.2867 58.9878 16.008 58.9878 14.608C58.9878 13.1333 59.2491 11.8267 59.7718 10.688C60.2945 9.53067 61.0691 8.62533 62.0958 7.972C63.1225 7.31867 64.4011 6.992 65.9318 6.992C66.4545 6.992 66.9678 7.05733 67.4718 7.188C67.9945 7.3 68.4705 7.47733 68.8998 7.72C69.3478 7.944 69.7305 8.24267 70.0478 8.616V2.176H73.9678V22H70.1598L70.1038 20.348C69.7678 20.7773 69.3571 21.132 68.8718 21.412C68.4051 21.6733 67.9011 21.8693 67.3598 22C66.8185 22.1307 66.2398 22.196 65.6238 22.196ZM66.4078 18.668C67.2478 18.668 67.9291 18.472 68.4518 18.08C68.9931 17.688 69.3945 17.184 69.6558 16.568C69.9171 15.952 70.0478 15.2893 70.0478 14.58C70.0478 13.852 69.9171 13.1893 69.6558 12.592C69.4131 11.976 69.0211 11.4907 68.4798 11.136C67.9571 10.7627 67.2665 10.576 66.4078 10.576C65.5491 10.576 64.8585 10.772 64.3358 11.164C63.8131 11.556 63.4398 12.0693 63.2158 12.704C63.0105 13.32 62.9078 13.9827 62.9078 14.692C62.9078 15.2147 62.9638 15.7187 63.0758 16.204C63.2065 16.6707 63.4118 17.0907 63.6918 17.464C63.9718 17.8373 64.3358 18.136 64.7838 18.36C65.2318 18.5653 65.7731 18.668 66.4078 18.668ZM85.5102 22V2.176H89.5142V18.304H99.5662V22H85.5102ZM108.597 22.196C107.047 22.196 105.731 21.888 104.649 21.272C103.566 20.656 102.735 19.788 102.157 18.668C101.578 17.5293 101.289 16.204 101.289 14.692C101.289 13.1613 101.587 11.8267 102.185 10.688C102.782 9.53067 103.622 8.62533 104.705 7.972C105.806 7.31867 107.103 6.992 108.597 6.992C109.717 6.992 110.697 7.17867 111.537 7.552C112.395 7.92533 113.114 8.448 113.693 9.12C114.29 9.792 114.729 10.576 115.009 11.472C115.307 12.3493 115.447 13.3013 115.429 14.328C115.429 14.5893 115.419 14.8413 115.401 15.084C115.382 15.3267 115.345 15.5693 115.289 15.812H105.181C105.237 16.372 105.395 16.8853 105.657 17.352C105.918 17.8187 106.282 18.192 106.749 18.472C107.234 18.7333 107.831 18.864 108.541 18.864C109.007 18.864 109.437 18.8173 109.829 18.724C110.221 18.612 110.557 18.444 110.837 18.22C111.117 17.996 111.313 17.7347 111.425 17.436H115.289C115.046 18.5373 114.589 19.4427 113.917 20.152C113.263 20.8613 112.47 21.384 111.537 21.72C110.603 22.0373 109.623 22.196 108.597 22.196ZM105.265 13.068H111.677C111.658 12.564 111.527 12.0973 111.285 11.668C111.061 11.22 110.715 10.8653 110.249 10.604C109.801 10.324 109.222 10.184 108.513 10.184C107.803 10.184 107.206 10.324 106.721 10.604C106.254 10.884 105.899 11.248 105.657 11.696C105.433 12.1253 105.302 12.5827 105.265 13.068ZM124.702 22.196C123.153 22.196 121.837 21.888 120.754 21.272C119.671 20.656 118.841 19.788 118.262 18.668C117.683 17.5293 117.394 16.204 117.394 14.692C117.394 13.1613 117.693 11.8267 118.29 10.688C118.887 9.53067 119.727 8.62533 120.81 7.972C121.911 7.31867 123.209 6.992 124.702 6.992C125.822 6.992 126.802 7.17867 127.642 7.552C128.501 7.92533 129.219 8.448 129.798 9.12C130.395 9.792 130.834 10.576 131.114 11.472C131.413 12.3493 131.553 13.3013 131.534 14.328C131.534 14.5893 131.525 14.8413 131.506 15.084C131.487 15.3267 131.45 15.5693 131.394 15.812H121.286C121.342 16.372 121.501 16.8853 121.762 17.352C122.023 17.8187 122.387 18.192 122.854 18.472C123.339 18.7333 123.937 18.864 124.646 18.864C125.113 18.864 125.542 18.8173 125.934 18.724C126.326 18.612 126.662 18.444 126.942 18.22C127.222 17.996 127.418 17.7347 127.53 17.436H131.394C131.151 18.5373 130.694 19.4427 130.022 20.152C129.369 20.8613 128.575 21.384 127.642 21.72C126.709 22.0373 125.729 22.196 124.702 22.196ZM121.37 13.068H127.782C127.763 12.564 127.633 12.0973 127.39 11.668C127.166 11.22 126.821 10.8653 126.354 10.604C125.906 10.324 125.327 10.184 124.618 10.184C123.909 10.184 123.311 10.324 122.826 10.604C122.359 10.884 122.005 11.248 121.762 11.696C121.538 12.1253 121.407 12.5827 121.37 13.068Z" fill="url(#paint0_linear_1_2)"/>
<path d="M14.4102 30.0234V47.8359H11.8906V30.0234H14.4102ZM0.0546875 37.6016C0.0449219 33.7246 2.02734 31.2734 4.76172 31.2734C7.4375 31.2734 9.42969 33.7246 9.42969 37.6016C9.42969 41.5078 7.4375 43.9492 4.76172 43.9492C2.02734 43.9492 0.0449219 41.5078 0.0546875 37.6016ZM2.45703 37.6016C2.44727 40.248 3.375 41.6934 4.76172 41.6836C6.10938 41.6934 7.01758 40.248 7.02734 37.6016C7.01758 34.9648 6.10938 33.5195 4.76172 33.5195C3.375 33.5195 2.44727 34.9648 2.45703 37.6016ZM30.8359 30.0234V36.625H33.4531V38.6562H30.8359V47.8359H28.3359V30.0234H30.8359ZM17.5156 43.5195V31.6641H25.8555V33.6758H19.9961V41.4688C22.5742 41.4492 24.7031 41.3125 27.0664 40.9023L27.3398 42.9922C24.5762 43.4609 22.1543 43.5293 19.0195 43.5195H17.5156ZM49.0195 30.0234V42.7773H46.5391V30.0234H49.0195ZM34.1367 38.0508C37.3594 38.0508 41.793 38.0117 45.543 37.4844L45.6797 39.2422C44.0781 39.5352 42.418 39.7207 40.7969 39.8379V42.582H38.3359V39.9746C36.9492 40.0332 35.6406 40.0527 34.4688 40.0625L34.1367 38.0508ZM35.3672 33.8516C35.377 31.8789 37.2227 30.5703 39.918 30.5703C42.6035 30.5703 44.4785 31.8789 44.4883 33.8516C44.4785 35.7949 42.6035 37.1035 39.918 37.0938C37.2227 37.1035 35.377 35.7949 35.3672 33.8516ZM36.3633 45.8242C40.2012 45.3945 42.0273 43.6953 42.0469 42.0156V41.3125H44.5664V42.0156C44.5566 43.6953 46.3926 45.3945 50.25 45.8242L49.3711 47.7188C46.4609 47.3379 44.3906 46.2441 43.3164 44.7109C42.2324 46.2539 40.1426 47.3672 37.2031 47.7383L36.3633 45.8242ZM37.7891 33.8516C37.7891 34.75 38.668 35.248 39.918 35.2578C41.1582 35.248 42.0371 34.75 42.0469 33.8516C42.0371 32.9141 41.1582 32.4062 39.918 32.4062C38.668 32.4062 37.7891 32.9141 37.7891 33.8516Z" fill="white" fill-opacity="0.6"/>
<defs>
<linearGradient id="paint0_linear_1_2" x1="-1" y1="23" x2="133" y2="23" gradientUnits="userSpaceOnUse">
<stop stop-color="#3B82F6"/>
<stop offset="1" stop-color="#EC4899"/>
</linearGradient>
</defs>
</svg>
