<svg fill="none" xmlns="http://www.w3.org/2000/svg" height="50" viewBox="0 0 133 43"><path d="M2.1 22V2.176h7.476c2.072 0 3.836.392 5.292 1.176a7.851 7.851 0 0 1 3.36 3.388c.784 1.475 1.176 3.276 1.176 5.404 0 2.09-.383 3.873-1.148 5.348a7.76 7.76 0 0 1-3.304 3.36C13.496 21.617 11.713 22 9.604 22H2.1Zm4.004-3.696h3.472c1.381 0 2.492-.261 3.332-.784a4.607 4.607 0 0 0 1.848-2.184c.392-.933.588-2.007.588-3.22 0-1.176-.196-2.23-.588-3.164a4.54 4.54 0 0 0-1.848-2.24c-.84-.541-1.979-.812-3.416-.812H6.104v12.404Zm20.565 3.892a7.627 7.627 0 0 1-1.96-.252 5.118 5.118 0 0 1-1.652-.84 3.994 3.994 0 0 1-1.148-1.4c-.28-.56-.42-1.213-.42-1.96 0-1.008.206-1.81.616-2.408a3.9 3.9 0 0 1 1.652-1.4c.69-.317 1.484-.532 2.38-.644a23.257 23.257 0 0 1 2.828-.168h2.128c0-.541-.102-1.017-.308-1.428a2.025 2.025 0 0 0-.868-.98c-.392-.243-.896-.364-1.512-.364-.392 0-.774.056-1.148.168a2.491 2.491 0 0 0-.896.42c-.242.187-.401.43-.476.728H21.91c.112-.821.373-1.521.784-2.1a4.985 4.985 0 0 1 1.54-1.456A6.82 6.82 0 0 1 26.25 7.3a9.43 9.43 0 0 1 2.296-.28c2.147 0 3.733.616 4.76 1.848 1.027 1.213 1.54 2.94 1.54 5.18V22h-3.528l-.056-1.904c-.466.653-.998 1.13-1.596 1.428-.578.299-1.139.485-1.68.56-.541.075-.98.112-1.316.112Zm.896-3.108c.653 0 1.25-.13 1.792-.392.541-.261.97-.616 1.288-1.064.317-.448.476-.952.476-1.512v-.364h-2.688c-.392 0-.774.019-1.148.056a3.963 3.963 0 0 0-.98.224 1.35 1.35 0 0 0-.672.476c-.168.224-.252.523-.252.896s.093.69.28.952c.205.243.476.43.812.56.336.112.7.168 1.092.168ZM41.547 22l-5.18-14.756h4.284l3.528 11.564 3.5-11.564h4.312L46.811 22h-5.264Zm11.974 0V7.244h3.92V22h-3.92Zm1.96-16.24c-.729 0-1.317-.215-1.764-.644-.448-.448-.672-1.017-.672-1.708 0-.728.233-1.316.7-1.764.466-.448 1.054-.672 1.764-.672a2.34 2.34 0 0 1 1.68.672c.485.43.727 1.008.727 1.736 0 .71-.233 1.288-.7 1.736-.447.43-1.026.644-1.736.644Zm11.143 16.436c-1.493 0-2.735-.336-3.724-1.008-.97-.69-1.699-1.605-2.184-2.744-.486-1.157-.728-2.436-.728-3.836 0-1.475.261-2.781.784-3.92.523-1.157 1.297-2.063 2.324-2.716s2.305-.98 3.836-.98c.522 0 1.036.065 1.54.196.523.112.999.29 1.428.532.448.224.83.523 1.148.896v-6.44h3.92V22H71.16l-.056-1.652c-.336.43-.747.784-1.232 1.064-.467.261-.97.457-1.512.588a7.38 7.38 0 0 1-1.736.196Zm.784-3.528c.84 0 1.521-.196 2.044-.588a3.54 3.54 0 0 0 1.204-1.512 5.038 5.038 0 0 0 .392-1.988c0-.728-.13-1.39-.392-1.988a3.02 3.02 0 0 0-1.176-1.456c-.523-.373-1.214-.56-2.072-.56-.859 0-1.55.196-2.072.588a3.217 3.217 0 0 0-1.12 1.54 6.25 6.25 0 0 0-.308 1.988c0 .523.056 1.027.168 1.512.13.467.336.887.616 1.26.28.373.644.672 1.092.896.448.205.99.308 1.624.308ZM86.51 22V2.176h4.004v16.128h10.052V22H86.51Zm23.087.196c-1.55 0-2.866-.308-3.948-.924a6.204 6.204 0 0 1-2.492-2.604c-.579-1.139-.868-2.464-.868-3.976 0-1.53.298-2.865.896-4.004a6.676 6.676 0 0 1 2.52-2.716c1.101-.653 2.398-.98 3.892-.98 1.12 0 2.1.187 2.94.56a5.915 5.915 0 0 1 2.156 1.568 6.344 6.344 0 0 1 1.316 2.352c.298.877.438 1.83.42 2.856 0 .261-.01.513-.028.756a4.952 4.952 0 0 1-.112.728h-10.108c.056.56.214 1.073.476 1.54.261.467.625.84 1.092 1.12.485.261 1.082.392 1.792.392.466 0 .896-.047 1.288-.14.392-.112.728-.28 1.008-.504.28-.224.476-.485.588-.784h3.864c-.243 1.101-.7 2.007-1.372 2.716a5.907 5.907 0 0 1-2.38 1.568 9.077 9.077 0 0 1-2.94.476Zm-3.332-9.128h6.412a3.044 3.044 0 0 0-.392-1.4 2.477 2.477 0 0 0-1.036-1.064c-.448-.28-1.027-.42-1.736-.42-.71 0-1.307.14-1.792.42-.467.28-.822.644-1.064 1.092-.224.43-.355.887-.392 1.372Zm19.437 9.128c-1.549 0-2.865-.308-3.948-.924a6.21 6.21 0 0 1-2.492-2.604c-.579-1.139-.868-2.464-.868-3.976 0-1.53.299-2.865.896-4.004a6.676 6.676 0 0 1 2.52-2.716c1.101-.653 2.399-.98 3.892-.98 1.12 0 2.1.187 2.94.56a5.907 5.907 0 0 1 2.156 1.568 6.344 6.344 0 0 1 1.316 2.352c.299.877.439 1.83.42 2.856 0 .261-.009.513-.028.756a4.952 4.952 0 0 1-.112.728h-10.108c.056.56.215 1.073.476 1.54.261.467.625.84 1.092 1.12.485.261 1.083.392 1.792.392.467 0 .896-.047 1.288-.14.392-.112.728-.28 1.008-.504.28-.224.476-.485.588-.784h3.864c-.243 1.101-.7 2.007-1.372 2.716a5.9 5.9 0 0 1-2.38 1.568 9.068 9.068 0 0 1-2.94.476Zm-3.332-9.128h6.412a3.031 3.031 0 0 0-.392-1.4 2.472 2.472 0 0 0-1.036-1.064c-.448-.28-1.027-.42-1.736-.42-.709 0-1.307.14-1.792.42-.467.28-.821.644-1.064 1.092-.224.43-.355.887-.392 1.372Z" fill="#fff"/><path d="M12.328 28.219v14.25h-2.015v-14.25h2.015ZM.844 34.28C.836 31.18 2.422 29.22 4.609 29.22c2.141 0 3.735 1.96 3.735 5.062 0 3.125-1.594 5.078-3.735 5.078-2.187 0-3.773-1.953-3.765-5.078Zm1.922 0c-.008 2.117.734 3.274 1.843 3.266 1.079.008 1.805-1.149 1.813-3.266-.008-2.11-.734-3.265-1.813-3.265-1.109 0-1.851 1.156-1.843 3.265Zm22.703-6.062V33.5h2.093v1.625H25.47v7.344h-2v-14.25h2ZM14.812 39.016V29.53h6.672v1.61h-4.687v6.234c2.062-.016 3.765-.125 5.656-.453l.219 1.672c-2.211.375-4.149.43-6.656.422h-1.203Zm25.204-10.797v10.203H38.03V28.219h1.985ZM28.109 34.64c2.578 0 6.125-.032 9.125-.453l.11 1.406a36.52 36.52 0 0 1-3.907.476v2.196H31.47V36.18c-1.11.047-2.157.062-3.094.07l-.266-1.61Zm.985-3.36c.008-1.578 1.484-2.625 3.64-2.625 2.149 0 3.649 1.047 3.657 2.625-.008 1.555-1.508 2.602-3.657 2.594-2.156.008-3.632-1.04-3.64-2.594Zm.797 9.578c3.07-.343 4.53-1.703 4.547-3.047v-.562h2.015v.563c-.008 1.343 1.461 2.703 4.547 3.046l-.703 1.516c-2.328-.305-3.984-1.18-4.844-2.406-.867 1.234-2.539 2.125-4.89 2.422l-.672-1.532Zm1.14-9.578c0 .719.703 1.117 1.703 1.125.993-.008 1.696-.406 1.703-1.125-.007-.75-.71-1.156-1.703-1.156-1 0-1.703.406-1.703 1.156Z" fill="#fff" fill-opacity=".8"/></svg>
